<?xml version="1.0" encoding="iso-8859-1"?>
<!-- Generator: Adobe Illustrator 18.1.1, SVG Export Plug-In . SVG Version: 6.00 Build 0)  -->
<svg version="1.1" id="Capa_1" xmlns="http://www.w3.org/2000/svg" xmlns:xlink="http://www.w3.org/1999/xlink" x="0px" y="0px"
	 viewBox="0 0 225 225" style="enable-background:new 0 0 225 225;" xml:space="preserve">
<g fill="#FFFFFF">
	<path id="circle29218" d="M90,0C70.729,0,55,15.729,55,35c0,0.004,0,0.008,0,0.012c0.008,3.403,0.56,6.757,1.533,9.988H25
		C11.236,45,0,56.236,0,70v39.062c0,2.762,2.239,5.001,5,5.001c0.882,0,1.748-0.233,2.511-0.676
		c3.795-2.206,8.104-3.375,12.494-3.387C33.869,110.003,45,121.136,45,135c0,13.863-11.129,24.995-24.99,25h-0.004
		c-4.39-0.009-8.699-1.172-12.496-3.375c-2.389-1.386-5.449-0.573-6.835,1.816C0.233,159.203,0,160.068,0,160.949V200
		c0,13.764,11.236,25,25,25h39.062c2.762-0.001,5-2.241,4.999-5.002c0-0.881-0.234-1.747-0.676-2.509
		c-2.206-3.796-3.373-8.104-3.385-12.494C65.003,191.131,76.136,180,90,180s24.997,11.131,25,24.994
		c-0.009,4.39-1.172,8.699-3.375,12.496c-1.386,2.389-0.573,5.449,1.816,6.835c0.762,0.442,1.627,0.675,2.508,0.675H155
		c13.764,0,25-11.236,25-25v-31.527c3.232,0.971,6.587,1.521,9.99,1.527c0.003,0,0.007,0,0.01,0c19.271,0,35-15.729,35-35
		s-15.729-35-35-35c-0.004,0-0.008,0-0.012,0c-3.403,0.009-6.757,0.56-9.988,1.533V70c0-13.764-11.236-25-25-25h-31.527
		c0.971-3.232,1.521-6.587,1.527-9.99c0-0.003,0-0.007,0-0.01C125,15.729,109.271,0,90,0z M90,10c13.864,0,24.997,11.131,25,24.994
		c-0.009,4.39-1.172,8.699-3.375,12.496c-1.386,2.389-0.573,5.449,1.816,6.835c0.762,0.442,1.627,0.675,2.508,0.675H155
		c8.396,0,15,6.604,15,15v39.062c0,2.762,2.239,5.001,5,5.001c0.882,0,1.748-0.233,2.511-0.676
		c3.795-2.206,8.104-3.375,12.494-3.387C203.869,110.003,215,121.136,215,135c0,13.863-11.129,24.995-24.99,25h-0.004
		c-4.39-0.009-8.699-1.172-12.496-3.375c-2.389-1.386-5.449-0.573-6.835,1.816c-0.442,0.762-0.675,1.627-0.675,2.508V200
		c0,8.396-6.604,15-15,15h-31.527c0.971-3.232,1.521-6.587,1.527-9.99c0-0.003,0-0.007,0-0.01c0-19.271-15.729-35-35-35
		s-35,15.729-35,35c0,0.004,0,0.008,0,0.012c0.008,3.403,0.56,6.757,1.533,9.988H25c-8.396,0-15-6.604-15-15v-31.527
		c3.232,0.971,6.587,1.521,9.99,1.527c0.003,0,0.007,0,0.01,0c19.271,0,35-15.729,35-35s-15.729-35-35-35c-0.004,0-0.008,0-0.012,0
		c-3.403,0.009-6.757,0.56-9.988,1.533V70c0-8.396,6.604-15,15-15h39.062c2.762-0.001,5-2.241,4.999-5.002
		c0-0.881-0.234-1.747-0.676-2.509c-2.206-3.796-3.373-8.104-3.385-12.494C65.003,21.131,76.136,10,90,10z M90,17.5
		c-9.775,0-17.485,7.705-17.498,17.477c-0.021,1.381,1.081,2.517,2.462,2.538s2.517-1.081,2.538-2.462c0-0.023,0-0.047,0-0.07
		C77.511,27.748,82.763,22.5,90,22.5c1.381,0.02,2.516-1.084,2.535-2.465s-1.084-2.516-2.465-2.535C90.047,17.5,90.024,17.5,90,17.5
		z M190.025,117.502c-1.381-0.021-2.517,1.081-2.538,2.462s1.081,2.517,2.462,2.538c0.023,0,0.047,0,0.07,0
		c7.233,0.009,12.48,5.261,12.48,12.498c-0.02,1.381,1.084,2.516,2.465,2.535c1.381,0.02,2.516-1.084,2.535-2.465
		c0-0.024,0-0.047,0-0.071C207.5,125.225,199.797,117.513,190.025,117.502z M19.963,177.465c-1.38,0.02-2.482,1.155-2.463,2.535v20
		c0,2.065,0.65,4.051,2.049,5.449S22.935,207.5,25,207.5h20c1.381,0.02,2.516-1.084,2.535-2.465c0.02-1.381-1.084-2.516-2.465-2.535
		c-0.024,0-0.047,0-0.071,0H25c-1.089,0-1.601-0.273-1.914-0.586S22.5,201.088,22.5,200v-20c0.019-1.381-1.084-2.516-2.465-2.535
		C20.011,177.464,19.987,177.464,19.963,177.465z"/>
</g>
<g>
</g>
<g>
</g>
<g>
</g>
<g>
</g>
<g>
</g>
<g>
</g>
<g>
</g>
<g>
</g>
<g>
</g>
<g>
</g>
<g>
</g>
<g>
</g>
<g>
</g>
<g>
</g>
<g>
</g>
</svg>
